<svg data-v-423bf9ae="" xmlns="http://www.w3.org/2000/svg" viewBox="0 0 565 90" class="iconLeft"><!----><!----><!----><g data-v-423bf9ae="" id="cb5d49b6-22a9-490f-a1bb-2fab86a50270" fill="black" transform="matrix(4.53498649597168,0,0,4.53498649597168,176.41632080078125,14.043402671813965)"><path d="M2.17 10.50L2.17 6.54C2.17 4.94 2.95 4.07 4.10 4.07C5.19 4.07 5.60 4.83 5.60 6.09L5.60 10.50L6.86 10.50L6.86 6.03C6.86 4.30 6.37 3.01 4.35 3.01C3.35 3.01 2.58 3.42 2.17 4.21L2.17 0.42L0.91 0.42L0.91 10.50ZM8.26 6.86C8.26 9.27 9.65 10.71 11.66 10.71C13.68 10.71 15.06 9.27 15.06 6.86C15.06 4.45 13.68 3.01 11.66 3.01C9.65 3.01 8.26 4.45 8.26 6.86ZM9.52 6.86C9.52 4.87 10.56 4.06 11.66 4.06C12.77 4.06 13.80 4.87 13.80 6.86C13.80 8.85 12.77 9.66 11.66 9.66C10.56 9.66 9.52 8.85 9.52 6.86ZM17.72 10.50L17.72 6.57C17.72 5.15 18.33 4.20 19.53 4.20C19.96 4.20 20.22 4.31 20.50 4.51L20.87 3.40C20.54 3.14 20.15 3.01 19.59 3.01C18.68 3.01 18.06 3.50 17.60 4.48L17.60 3.22L16.46 3.22L16.46 10.50ZM21.80 13.30C22.06 13.40 22.36 13.44 22.60 13.44C23.79 13.44 24.33 12.56 24.81 11.28L27.80 3.22L26.57 3.22L24.50 8.89L22.39 3.22L21.08 3.22L23.91 10.43L23.59 11.31C23.28 12.04 22.92 12.33 22.37 12.33C22.16 12.33 21.90 12.29 21.66 12.21L21.80 13.30ZM34.37 10.50L34.37 9.45L29.92 9.45L34.29 4.27L34.29 3.22L28.77 3.22L28.77 4.27L32.80 4.27L28.50 9.45L28.50 10.50ZM35.42 6.86C35.42 9.27 36.81 10.71 38.82 10.71C40.84 10.71 42.22 9.27 42.22 6.86C42.22 4.45 40.84 3.01 38.82 3.01C36.81 3.01 35.42 4.45 35.42 6.86ZM36.68 6.86C36.68 4.87 37.72 4.06 38.82 4.06C39.93 4.06 40.96 4.87 40.96 6.86C40.96 8.85 39.93 9.66 38.82 9.66C37.72 9.66 36.68 8.85 36.68 6.86ZM44.88 10.50L44.88 6.54C44.88 4.94 45.67 4.07 46.82 4.07C47.91 4.07 48.31 4.83 48.31 6.09L48.31 10.50L49.57 10.50L49.57 6.03C49.57 4.30 49.08 3.01 47.07 3.01C46.06 3.01 45.29 3.37 44.76 4.27L44.76 3.22L43.62 3.22L43.62 10.50ZM54.29 9.44C54.07 9.51 53.86 9.52 53.72 9.52C53.06 9.52 53.06 9.07 53.06 8.44L53.06 4.19L54.31 4.19L54.31 3.22L53.06 3.22L53.06 0.70L51.80 1.30L51.80 3.22L50.76 3.22L50.76 4.19L51.80 4.19L51.80 8.37C51.80 9.80 51.98 10.64 53.51 10.64C53.77 10.64 54.15 10.58 54.43 10.50ZM57.06 9.31C57.19 8.48 58.34 7.67 59.40 6.92C60.62 6.05 61.92 4.75 61.92 3.22C61.92 1.30 60.72 0.21 58.87 0.21C56.98 0.21 55.80 1.43 55.69 3.33L56.95 3.47C56.97 2.24 57.62 1.33 58.84 1.33C60.02 1.33 60.66 2.13 60.66 3.19C60.66 4.17 59.86 5.05 58.66 5.99C56.99 7.29 55.45 8.11 55.50 10.50L61.94 10.50L61.94 9.31ZM63.41 5.46C63.41 8.50 64.30 10.71 66.67 10.71C69.03 10.71 69.93 8.50 69.93 5.46C69.93 2.42 69.03 0.21 66.67 0.21C64.30 0.21 63.41 2.42 63.41 5.46ZM68.67 5.46C68.67 7.80 68.19 9.66 66.67 9.66C66.23 9.66 65.88 9.52 65.62 9.25L68.35 2.81C68.57 3.53 68.67 4.45 68.67 5.46ZM64.67 5.46C64.67 3.12 65.14 1.26 66.67 1.26C67.09 1.26 67.44 1.40 67.70 1.67L64.96 8.09C64.75 7.38 64.67 6.45 64.67 5.46ZM73.78 4.47L73.78 5.52L74.37 5.52C75.64 5.52 76.36 6.43 76.36 7.56C76.36 8.69 75.64 9.59 74.37 9.59C73.14 9.59 72.48 8.75 72.44 7.67L71.12 7.85C71.19 9.59 72.46 10.71 74.37 10.71C76.33 10.71 77.64 9.42 77.64 7.60C77.64 6.27 76.94 5.25 75.75 4.91C76.64 4.56 77.27 3.89 77.27 2.80C77.27 1.06 76.01 0.21 74.34 0.21C72.67 0.21 71.51 1.27 71.37 3.01L72.65 3.18C72.65 2.16 73.22 1.29 74.37 1.29C75.33 1.29 75.94 1.92 75.94 2.83C75.94 3.74 75.38 4.47 74.37 4.47ZM78.97 5.46C78.97 8.50 79.87 10.71 82.24 10.71C84.60 10.71 85.50 8.50 85.50 5.46C85.50 2.42 84.60 0.21 82.24 0.21C79.87 0.21 78.97 2.42 78.97 5.46ZM84.24 5.46C84.24 7.80 83.76 9.66 82.24 9.66C81.80 9.66 81.45 9.52 81.19 9.25L83.92 2.81C84.14 3.53 84.24 4.45 84.24 5.46ZM80.23 5.46C80.23 3.12 80.71 1.26 82.24 1.26C82.66 1.26 83.01 1.40 83.27 1.67L80.53 8.09C80.32 7.38 80.23 6.45 80.23 5.46Z"></path></g><!----><g data-v-423bf9ae="" id="3a964e95-e1d0-49db-a6b3-77249061ea4b" transform="matrix(1.957851767539978,0,0,1.957851767539978,-16.892587661743164,-52.891929626464844)" stroke="none" fill="black"><g data-name="Layer 2"><path d="M90 71H10a1 1 0 0 0 0 2h80a1 1 0 0 0 0-2zM50 42.9a.94.94 0 0 0 .94-.94V28A.94.94 0 0 0 49 28v14a.94.94 0 0 0 1 .9zM27.89 51.52a.94.94 0 1 0 1.32-1.32l-9.9-9.9A.94.94 0 0 0 18 41.63zM71.42 51.77a.93.93 0 0 0 .66-.27L82 41.6a.94.94 0 0 0-1.32-1.32l-9.9 9.9a.94.94 0 0 0 .66 1.6zM50 51.29a21.08 21.08 0 0 1 18.19 10.5l1.73-1a23 23 0 0 0-39.84 0l1.73 1A21.08 21.08 0 0 1 50 51.29z"></path></g></g><!----></svg>